# xmcd
#
# Track frame offsets:
#	150
#	40060
#	59630
#	73735
#	93417
#	116167
#	127405
#	136380
#	148492
#	167687
#	177622
#
# Disc length: 2506 seconds
#
# Revision: 0
# Processed by: cddbd v1.4b41PL3 Copyright (c) Steve Scherf et al.
# Submitted via: EZCDDA 4.3.3.2
#
DISCID=b809c80b
DTITLE=김현식 - 김현식 7집 Self portrait
DYEAR=1900
DGENRE=
TTITLE0=01 김현식 Live Voice
TTITLE1=02 다시 처음이라오 - 김현식,김장훈
TTITLE2=03 사랑의 불씨
TTITLE3=04 이 바람속에서
TTITLE4=05 First Of May - 김현식,박정운
TTITLE5=06 Rain
TTITLE6=07 다시 처음이라오
TTITLE7=08 사랑의 불씨
TTITLE8=09 이 바람 속에서
TTITLE9=10 First Of May
TTITLE10=11 Rain
EXTD=
EXTT0=
EXTT1=
EXTT2=
EXTT3=
EXTT4=
EXTT5=
EXTT6=
EXTT7=
EXTT8=
EXTT9=
EXTT10=
PLAYORDER=
